<svg width="32" height="32" viewBox="0 0 32 32" fill="none" xmlns="http://www.w3.org/2000/svg">
<path d="M22 2H9.99998C9.20531 2.00316 8.44408 2.32025 7.88216 2.88217C7.32023 3.4441 7.00314 4.20532 6.99998 5V27C7.00341 27.7946 7.32057 28.5557 7.88244 29.1175C8.44431 29.6794 9.20539 29.9966 9.99998 30H22C22.7946 29.9966 23.5557 29.6794 24.1175 29.1175C24.6794 28.5557 24.9966 27.7946 25 27V5C24.9966 4.2054 24.6794 3.44433 24.1175 2.88246C23.5557 2.32059 22.7946 2.00342 22 2ZM9.99998 4H22C22.2652 4 22.5196 4.10536 22.7071 4.29289C22.8946 4.48043 23 4.73478 23 5V6H8.99998V5C8.99998 4.73478 9.10534 4.48043 9.29288 4.29289C9.48041 4.10536 9.73477 4 9.99998 4ZM22 28H9.99998C9.73477 28 9.48041 27.8946 9.29288 27.7071C9.10534 27.5196 8.99998 27.2652 8.99998 27V26H23V27C23 27.2652 22.8946 27.5196 22.7071 27.7071C22.5196 27.8946 22.2652 28 22 28Z" fill="#01F38D"/>
</svg>
