<svg width="33" height="32" viewBox="0 0 33 32" fill="none" xmlns="http://www.w3.org/2000/svg">
<path d="M26.7 5H6.70001C5.90436 5 5.1413 5.31607 4.57869 5.87868C4.01608 6.44129 3.70001 7.20435 3.70001 8V22C3.70001 22.7956 4.01608 23.5587 4.57869 24.1213C5.1413 24.6839 5.90436 25 6.70001 25H26.7C27.4957 25 28.2587 24.6839 28.8213 24.1213C29.3839 23.5587 29.7 22.7956 29.7 22V8C29.7 7.20435 29.3839 6.44129 28.8213 5.87868C28.2587 5.31607 27.4957 5 26.7 5Z" fill="#01F38D"/>
<path d="M20.7 27H12.7C12.4348 27 12.1804 27.1054 11.9929 27.2929C11.8054 27.4804 11.7 27.7348 11.7 28C11.7 28.2652 11.8054 28.5196 11.9929 28.7071C12.1804 28.8946 12.4348 29 12.7 29H20.7C20.9652 29 21.2196 28.8946 21.4071 28.7071C21.5947 28.5196 21.7 28.2652 21.7 28C21.7 27.7348 21.5947 27.4804 21.4071 27.2929C21.2196 27.1054 20.9652 27 20.7 27Z" fill="#01F38D"/>
</svg>
