<svg width="33" height="32" viewBox="0 0 33 32" fill="none" xmlns="http://www.w3.org/2000/svg">
<path d="M9.63067 3.90668C8.21618 3.90668 6.85962 4.46858 5.85943 5.46877C4.85924 6.46897 4.29733 7.82552 4.29733 9.24001V22.5733C4.29733 23.9878 4.85924 25.3444 5.85943 26.3446C6.85962 27.3448 8.21618 27.9067 9.63067 27.9067H22.964C24.3785 27.9067 25.735 27.3448 26.7352 26.3446C27.7354 25.3444 28.2973 23.9878 28.2973 22.5733V9.24001C28.2973 7.82552 27.7354 6.46897 26.7352 5.46877C25.735 4.46858 24.3785 3.90668 22.964 3.90668H9.63067ZM10.964 9.24001C11.3176 9.24001 11.6568 9.38049 11.9068 9.63054C12.1569 9.88058 12.2973 10.2197 12.2973 10.5733C12.2973 10.927 12.1569 11.2661 11.9068 11.5162C11.6568 11.7662 11.3176 11.9067 10.964 11.9067C10.6104 11.9067 10.2712 11.7662 10.0212 11.5162C9.77114 11.2661 9.63067 10.927 9.63067 10.5733C9.63067 10.2197 9.77114 9.88058 10.0212 9.63054C10.2712 9.38049 10.6104 9.24001 10.964 9.24001ZM14.964 9.24001H21.6307C21.9843 9.24001 22.3234 9.38049 22.5735 9.63054C22.8235 9.88058 22.964 10.2197 22.964 10.5733C22.964 10.927 22.8235 11.2661 22.5735 11.5162C22.3234 11.7662 21.9843 11.9067 21.6307 11.9067H14.964C14.6104 11.9067 14.2712 11.7662 14.0212 11.5162C13.7711 11.2661 13.6307 10.927 13.6307 10.5733C13.6307 10.2197 13.7711 9.88058 14.0212 9.63054C14.2712 9.38049 14.6104 9.24001 14.964 9.24001ZM10.964 14.5733C11.3176 14.5733 11.6568 14.7138 11.9068 14.9639C12.1569 15.2139 12.2973 15.5531 12.2973 15.9067C12.2973 16.2603 12.1569 16.5994 11.9068 16.8495C11.6568 17.0995 11.3176 17.24 10.964 17.24C10.6104 17.24 10.2712 17.0995 10.0212 16.8495C9.77114 16.5994 9.63067 16.2603 9.63067 15.9067C9.63067 15.5531 9.77114 15.2139 10.0212 14.9639C10.2712 14.7138 10.6104 14.5733 10.964 14.5733ZM14.964 14.5733H21.6307C21.9843 14.5733 22.3234 14.7138 22.5735 14.9639C22.8235 15.2139 22.964 15.5531 22.964 15.9067C22.964 16.2603 22.8235 16.5994 22.5735 16.8495C22.3234 17.0995 21.9843 17.24 21.6307 17.24H14.964C14.6104 17.24 14.2712 17.0995 14.0212 16.8495C13.7711 16.5994 13.6307 16.2603 13.6307 15.9067C13.6307 15.5531 13.7711 15.2139 14.0212 14.9639C14.2712 14.7138 14.6104 14.5733 14.964 14.5733ZM10.964 19.9067C11.3176 19.9067 11.6568 20.0472 11.9068 20.2972C12.1569 20.5472 12.2973 20.8864 12.2973 21.24C12.2973 21.5936 12.1569 21.9328 11.9068 22.1828C11.6568 22.4329 11.3176 22.5733 10.964 22.5733C10.6104 22.5733 10.2712 22.4329 10.0212 22.1828C9.77114 21.9328 9.63067 21.5936 9.63067 21.24C9.63067 20.8864 9.77114 20.5472 10.0212 20.2972C10.2712 20.0472 10.6104 19.9067 10.964 19.9067ZM14.964 19.9067H21.6307C21.9843 19.9067 22.3234 20.0472 22.5735 20.2972C22.8235 20.5472 22.964 20.8864 22.964 21.24C22.964 21.5936 22.8235 21.9328 22.5735 22.1828C22.3234 22.4329 21.9843 22.5733 21.6307 22.5733H14.964C14.6104 22.5733 14.2712 22.4329 14.0212 22.1828C13.7711 21.9328 13.6307 21.5936 13.6307 21.24C13.6307 20.8864 13.7711 20.5472 14.0212 20.2972C14.2712 20.0472 14.6104 19.9067 14.964 19.9067Z" fill="#01F38D"/>
</svg>
